<svg width="28" height="9" viewBox="0 0 28 9" fill="none" xmlns="http://www.w3.org/2000/svg">
<path d="M13 4C13 6.20914 10.3137 8 7 8C3.68629 8 1 5.20914 1 3C1 0.790861 3.68629 0 7 0C10.3137 0 13 0.793124 13 4Z" fill="#00263E"/>
<path d="M6.5 0.5C1.68336 0.5 1 1.50001 1 2.5C1 4 3.95862 8 7 8C10.5 8 13 6 13 3.49999C13 0.99999 12.5 0.5 6.5 0.5Z" stroke="#45D3E7" stroke-linecap="round"/>
<ellipse cx="4.5" cy="3" rx="1.5" ry="1" fill="#405C70"/>
<path d="M15 4C15 6.20914 17.6863 8 21 8C24.3137 8 27 5.20914 27 3C27 0.790861 24.3137 0 21 0C17.6863 0 15 0.793124 15 4Z" fill="#00263E"/>
<path d="M21.5 0.5C26.3166 0.5 27 1.50001 27 2.5C27 4 24.0414 8 21 8C17.5 8 15 6 15 3.49999C15 0.99999 15.5 0.5 21.5 0.5Z" stroke="#45D3E7" stroke-linecap="round"/>
<ellipse cx="1.5" cy="1" rx="1.5" ry="1" transform="matrix(-1 0 0 1 25 2)" fill="#405C70"/>
</svg>
